<svg height="512pt" viewBox="-64 0 511 512" width="512pt" xmlns="http://www.w3.org/2000/svg"><path d="m222.664062 272.304688c-3.941406 0-7.765624-1.558594-10.601562-4.394532l-42.246094-42.246094c-3.464844-3.464843-5.019531-8.402343-4.164062-13.226562.855468-4.824219 4.015625-8.925781 8.460937-10.988281l32.460938-15.050781 3.917969-8.449219c2.0625-4.445313 6.164062-7.605469 10.988281-8.460938 4.820312-.855469 9.761719.695313 13.226562 4.160157l29.367188 29.371093c3.464843 3.464844 5.019531 8.402344 4.164062 13.226563-.855469 4.824218-4.015625 8.925781-8.460937 10.988281l-8.453125 3.917969-15.046875 32.460937c-2.0625 4.445313-6.164063 7.605469-10.988282 8.460938-.875.152343-1.75.230469-2.625.230469zm0 0"/><path d="m325.265625 156.824219c-3.941406 0-7.765625-1.554688-10.605469-4.394531l-29.367187-29.367188c-3.464844-3.460938-5.019531-8.402344-4.160157-13.226562.855469-4.824219 4.011719-8.925782 8.457032-10.988282l8.453125-3.917968 15.050781-32.460938c2.058594-4.445312 6.164062-7.605469 10.984375-8.460938 4.820313-.851562 9.765625.695313 13.230469 4.164063l42.246094 42.246094c3.464843 3.464843 5.019531 8.402343 4.164062 13.226562-.859375 4.824219-4.015625 8.925781-8.460938 10.988281l-32.460937 15.050782-3.917969 8.449218c-2.0625 4.445313-6.164062 7.605469-10.988281 8.460938-.875.15625-1.753906.230469-2.625.230469zm0 0" fill="#e8711c"/><path d="m260.933594 241.640625c-9.777344 0-19.554688-3.71875-27-11.164063l-26.6875-26.6875c-14.882813-14.886718-14.882813-39.105468 0-53.992187l54.191406-54.191406c7.210938-7.210938 16.800781-11.183594 26.996094-11.183594 10.199218 0 19.789062 3.972656 27 11.183594l26.683594 26.6875c7.210937 7.210937 11.183593 16.800781 11.183593 26.996093 0 10.199219-3.972656 19.789063-11.183593 27v-.003906l-54.1875 54.191406c-7.445313 7.445313-17.222657 11.164063-26.996094 11.164063zm0 0" fill="#f6921e"/><path d="m87.867188 205.792969c-8.285157 0-15-6.714844-15-15v-87.042969c0-11.679688-9.503907-21.183594-21.183594-21.183594-11.679688 0-21.183594 9.503906-21.183594 21.183594v25.429688c0 8.285156-6.714844 15-15 15s-15-6.714844-15-15v-25.429688c0-28.222656 22.960938-51.183594 51.183594-51.183594s51.183594 22.960938 51.183594 51.183594v87.042969c0 8.285156-6.714844 15-15 15zm0 0" fill="#ff636e"/><path d="m178.121094 198.167969c-8.285156 0-15-6.71875-15-15v-64.242188c0-8.285156 6.714844-15 15-15 8.28125 0 15 6.714844 15 15v64.242188c0 8.28125-6.714844 15-15 15zm0 0" fill="#bec3d2"/><path d="m145.121094 99.964844 66-66.003906" fill="#f5f3f0"/><path d="m341.816406 512h-283.164062c-8.285156 0-15-6.714844-15-15v-329.949219c0-8.28125 6.714844-15 15-15h283.164062c8.285156 0 15 6.71875 15 15v329.949219c0 8.285156-6.714844 15-15 15zm0 0" fill="#c78ff5"/><path d="m178.121094 0c-36.925782 0-66.964844 30.039062-66.964844 66.964844 0 18.402344 7.464844 35.089844 19.523438 47.207031l94.648437-94.648437c-12.113281-12.058594-28.804687-19.523438-47.207031-19.523438zm0 0" fill="#82cd64"/><path d="m225.328125 19.523438-94.648437 94.648437c12.136718 12.191406 28.921874 19.753906 47.441406 19.753906 36.925781 0 66.964844-30.039062 66.964844-66.964843-.003907-18.519532-7.5625-35.304688-19.757813-47.4375zm0 0" fill="#509137"/><path d="m341.816406 152.050781h-150.042968v359.949219h150.042968c8.285156 0 15-6.714844 15-15v-329.949219c0-8.28125-6.714844-15-15-15zm0 0" fill="#a260e5"/><path d="m200.234375 390.289062c-40.710937 0-73.832031-33.121093-73.832031-73.832031v-51.289062c0-8.285157 6.714844-15 15-15s15 6.714843 15 15v51.289062c0 24.171875 19.664062 43.832031 43.832031 43.832031s43.832031-19.660156 43.832031-43.832031v-51.289062c0-8.285157 6.714844-15 15-15s15 6.714843 15 15v51.289062c0 40.710938-33.121094 73.832031-73.832031 73.832031zm0 0" fill="#7a3eb5"/><path d="m154.9375 276.3125h-27.070312c-8.28125 0-15-6.71875-15-15 0-8.285156 6.71875-15 15-15h27.070312c8.285156 0 15 6.714844 15 15 0 8.28125-6.714844 15-15 15zm0 0" fill="#613394"/><path d="m259.066406 250.167969c-8.285156 0-15 6.714843-15 15v51.289062c0 24.171875-19.664062 43.832031-43.832031 43.832031-2.792969 0-5.523437-.273437-8.175781-.777343v30.3125c2.6875.300781 5.414062.464843 8.175781.464843 40.710937 0 73.832031-33.121093 73.832031-73.832031v-51.292969c0-8.28125-6.714844-14.996093-15-14.996093zm0 0" fill="#613394"/><path d="m272.601562 276.3125h-27.070312c-8.28125 0-15-6.71875-15-15 0-8.285156 6.71875-15 15-15h27.070312c8.285157 0 15 6.714844 15 15 0 8.28125-6.714843 15-15 15zm0 0" fill="#2c0652"/></svg>