<svg height="512pt" viewBox="-107 0 512 512" width="512pt" xmlns="http://www.w3.org/2000/svg"><path d="m297.535156 148.769531c0 74.699219-55.054687 136.542969-126.8125 147.152344-7.167968 1.066406-14.492187 1.613281-21.953125 1.613281-82.164062 0-148.769531-66.605468-148.769531-148.765625 0-82.164062 66.605469-148.769531 148.769531-148.769531 7.460938 0 14.785157.550781 21.953125 1.613281 71.757813 10.609375 126.8125 72.453125 126.8125 147.15625zm0 0" fill="#c2eaf2"/><path d="m297.535156 148.769531c0 74.699219-55.054687 136.542969-126.8125 147.152344-71.753906-10.609375-126.8125-72.453125-126.8125-147.152344 0-74.703125 55.058594-136.546875 126.8125-147.15625 71.757813 10.609375 126.8125 72.453125 126.8125 147.15625zm0 0" fill="#def4f8"/><path d="m280.625 512h-263.714844c-5.785156 0-10.144531-5.265625-9.035156-10.945312l7.175781-37.070313 38.390625-200.996094h190.652344l5.648438 29.417969 32.910156 171.578125 7.019531 37.113281c1.078125 5.667969-3.273437 10.902344-9.046875 10.902344zm0 0" fill="#f44545"/><path d="m280.625 512h-236.703125l3.597656-18.597656 36.964844-193.542969c.824219-4.328125 4.601563-7.453125 9.003906-7.453125h156.253907l32.910156 171.578125 7.019531 37.113281c1.078125 5.667969-3.273437 10.902344-9.046875 10.902344zm0 0" fill="#fb5858"/><path d="m280.625 512h-263.714844c-5.785156 0-10.144531-5.265625-9.035156-10.945312l7.175781-37.070313h267.601563l7.019531 37.113281c1.078125 5.667969-3.273437 10.902344-9.046875 10.902344zm0 0" fill="#1ab975"/><path d="m192.679688 375.351562v88.558594h-87.824219v-88.558594c0-24.246093 19.65625-43.914062 43.914062-43.914062 6.554688 0 12.757813 1.4375 18.34375 4.011719 4.761719 2.1875 9.054688 5.203125 12.707031 8.855469 7.9375 7.949218 12.859376 18.925781 12.859376 31.046874zm0 0" fill="#c2eaf2"/><path d="m192.679688 375.351562v88.558594h-51.152344v-88.558594c0-17.703124 10.480468-32.964843 25.585937-39.902343 4.761719 2.1875 9.054688 5.203125 12.707031 8.855469 7.9375 7.949218 12.859376 18.925781 12.859376 31.046874zm0 0" fill="#def4f8"/><path d="m181.234375 233.328125c0 12.316406-7.492187 22.882813-18.175781 27.367187-3.535156 1.488282-7.417969 2.3125-11.492188 2.3125-16.382812 0-29.671875-13.289062-29.671875-29.679687 0-16.382813 13.289063-29.671875 29.671875-29.671875 4.074219 0 7.957032.824219 11.492188 2.3125 10.683594 4.484375 18.175781 15.050781 18.175781 27.359375zm0 0" fill="#ffc14f"/><path d="m104.816406 233.328125c0 12.316406-7.496094 22.882813-18.175781 27.378906-3.539063 1.476563-7.421875 2.300781-11.496094 2.300781-16.394531 0-29.671875-13.289062-29.671875-29.679687 0-16.382813 13.277344-29.671875 29.671875-29.671875 4.074219 0 7.957031.824219 11.496094 2.300781 10.679687 4.496094 18.175781 15.0625 18.175781 27.371094zm0 0" fill="#9773bd"/><path d="m257.941406 233.328125c0 12.316406-7.492187 22.882813-18.1875 27.367187-3.535156 1.488282-7.410156 2.3125-11.484375 2.3125-16.390625 0-29.667969-13.289062-29.667969-29.679687 0-16.382813 13.277344-29.671875 29.667969-29.671875 4.074219 0 7.949219.824219 11.484375 2.3125 10.695313 4.484375 18.1875 15.050781 18.1875 27.359375zm0 0" fill="#9773bd"/><path d="m141.484375 173.425781c0 12.308594-7.496094 22.871094-18.175781 27.359375-3.535156 1.488282-7.421875 2.3125-11.496094 2.3125-16.382812 0-29.671875-13.289062-29.671875-29.671875 0-16.394531 13.289063-29.671875 29.671875-29.671875 4.074219 0 7.960938.824219 11.496094 2.3125 10.679687 4.484375 18.175781 15.039063 18.175781 27.359375zm0 0" fill="#f44545"/><path d="m70.109375 173.425781c0 12.308594-7.503906 22.871094-18.199219 27.359375-3.535156 1.488282-7.410156 2.3125-11.484375 2.3125-16.378906 0-29.667969-13.289062-29.667969-29.671875 0-16.394531 13.289063-29.671875 29.667969-29.671875 4.074219 0 7.949219.824219 11.484375 2.3125 10.695313 4.476563 18.199219 15.039063 18.199219 27.359375zm0 0" fill="#1ab975"/><path d="m212.871094 173.425781c0 12.308594-7.496094 22.871094-18.1875 27.359375-3.535156 1.488282-7.410156 2.3125-11.484375 2.3125-16.382813 0-29.671875-13.289062-29.671875-29.671875 0-16.394531 13.289062-29.671875 29.671875-29.671875 4.074219 0 7.949219.824219 11.484375 2.3125 10.691406 4.484375 18.1875 15.039063 18.1875 27.359375zm0 0" fill="#1ab975"/><path d="m286.78125 173.425781c0 12.308594-7.507812 22.871094-18.1875 27.359375-3.539062 1.488282-7.410156 2.3125-11.484375 2.3125-16.394531 0-29.683594-13.289062-29.683594-29.671875 0-16.394531 13.289063-29.671875 29.683594-29.671875 4.074219 0 7.945313.824219 11.484375 2.3125 10.679688 4.484375 18.1875 15.039063 18.1875 27.359375zm0 0" fill="#f44545"/><path d="m181.234375 233.328125c0 12.316406-7.492187 22.882813-18.175781 27.367187-10.691406-4.484374-18.195313-15.050781-18.195313-27.367187 0-12.308594 7.503907-22.875 18.195313-27.359375 10.683594 4.484375 18.175781 15.050781 18.175781 27.359375zm0 0" fill="#ffd993"/><path d="m104.816406 233.328125c0 12.316406-7.496094 22.882813-18.175781 27.378906-10.695313-4.484375-18.199219-15.0625-18.199219-27.378906 0-12.320313 7.503906-22.886719 18.199219-27.371094 10.679687 4.496094 18.175781 15.0625 18.175781 27.371094zm0 0" fill="#a88ac8"/><path d="m257.941406 233.328125c0 12.316406-7.492187 22.882813-18.1875 27.367187-10.679687-4.484374-18.1875-15.050781-18.1875-27.367187 0-12.308594 7.507813-22.875 18.1875-27.359375 10.695313 4.484375 18.1875 15.050781 18.1875 27.359375zm0 0" fill="#a88ac8"/><path d="m141.484375 173.425781c0 12.308594-7.496094 22.871094-18.175781 27.359375-10.691406-4.488281-18.199219-15.050781-18.199219-27.359375 0-12.320312 7.507813-22.882812 18.199219-27.359375 10.679687 4.484375 18.175781 15.039063 18.175781 27.359375zm0 0" fill="#fb5858"/><path d="m70.109375 173.425781c0 12.308594-7.503906 22.871094-18.199219 27.359375-10.679687-4.488281-18.1875-15.050781-18.1875-27.359375 0-12.320312 7.507813-22.875 18.1875-27.359375 10.695313 4.476563 18.199219 15.039063 18.199219 27.359375zm0 0" fill="#1ed688"/><path d="m212.871094 173.425781c0 12.308594-7.496094 22.871094-18.1875 27.359375-10.683594-4.488281-18.1875-15.050781-18.1875-27.359375 0-12.320312 7.503906-22.875 18.1875-27.359375 10.691406 4.484375 18.1875 15.039063 18.1875 27.359375zm0 0" fill="#1ed688"/><path d="m286.78125 173.425781c0 12.308594-7.507812 22.871094-18.1875 27.359375-10.683594-4.488281-18.1875-15.050781-18.1875-27.359375 0-12.320312 7.503906-22.875 18.1875-27.359375 10.679688 4.484375 18.1875 15.039063 18.1875 27.359375zm0 0" fill="#fb5858"/><path d="m222.371094 434.226562c0 12.320313-7.496094 22.875-18.1875 27.359376-3.535156 1.488281-7.410156 2.3125-11.484375 2.3125-16.382813 0-29.671875-13.277344-29.671875-29.671876 0-16.378906 13.289062-29.671874 29.671875-29.671874 4.074219 0 7.949219.824218 11.484375 2.3125 10.691406 4.488281 18.1875 15.054687 18.1875 27.359374zm0 0" fill="#ffc14f"/><path d="m222.371094 434.226562c0 12.320313-7.496094 22.875-18.1875 27.359376-10.683594-4.484376-18.1875-15.039063-18.1875-27.359376 0-12.304687 7.503906-22.871093 18.1875-27.359374 10.691406 4.488281 18.1875 15.054687 18.1875 27.359374zm0 0" fill="#ffd993"/><path d="m15.050781 463.984375-7.175781 37.070313c-1.109375 5.679687 3.25 10.945312 9.035156 10.945312h27.011719c4.433594-22.917969 2.46875-12.675781 9.214844-48.015625zm0 0" fill="#169b62"/></svg>